<svg width="4345" height="2881" viewBox="0 0 4345 2881" fill="none" xmlns="http://www.w3.org/2000/svg">
<rect x="1451.98" width="180.003" height="180.003" fill="black"/>
<rect x="1631.99" y="180.003" width="180.003" height="180.003" fill="black"/>
<rect x="1451.98" y="1440.02" width="180.003" height="180.003" fill="black"/>
<rect x="1631.99" y="1620.03" width="180.003" height="180.003" fill="black"/>
<rect x="2896.18" width="180.003" height="180.003" fill="black"/>
<rect x="3076.18" y="180.003" width="180.003" height="180.003" fill="black"/>
<rect x="2896.18" y="1440.02" width="180.003" height="180.003" fill="black"/>
<rect x="3076.18" y="1620.03" width="180.003" height="180.003" fill="black"/>
<rect width="180.003" height="180.003" fill="black"/>
<rect x="180.004" y="180.003" width="180.003" height="180.003" fill="black"/>
<rect y="1440.02" width="180.003" height="180.003" fill="black"/>
<rect x="180.004" y="1620.03" width="180.003" height="180.003" fill="black"/>
<rect x="2175.98" width="180.003" height="180.003" fill="black"/>
<rect x="2355.99" y="180.003" width="180.003" height="180.003" fill="black"/>
<rect x="2175.98" y="1440.02" width="180.003" height="180.003" fill="black"/>
<rect x="2355.99" y="1620.03" width="180.003" height="180.003" fill="black"/>
<rect x="3620.18" width="180.003" height="180.003" fill="black"/>
<rect x="3800.18" y="180.003" width="180.003" height="180.003" fill="black"/>
<rect x="3620.18" y="1440.02" width="180.003" height="180.003" fill="black"/>
<rect x="3800.18" y="1620.03" width="180.003" height="180.003" fill="black"/>
<rect x="724" width="180.003" height="180.003" fill="black"/>
<rect x="904.004" y="180.003" width="180.003" height="180.003" fill="black"/>
<rect x="724" y="1440.02" width="180.003" height="180.003" fill="black"/>
<rect x="904.004" y="1620.03" width="180.003" height="180.003" fill="black"/>
<rect x="1815.98" width="180.003" height="180.003" fill="black"/>
<rect x="1995.98" y="180.003" width="180.003" height="180.003" fill="black"/>
<rect x="1815.98" y="1440.02" width="180.003" height="180.003" fill="black"/>
<rect x="1995.98" y="1620.03" width="180.003" height="180.003" fill="black"/>
<rect x="3260.17" width="180.003" height="180.003" fill="black"/>
<rect x="3440.18" y="180.003" width="180.003" height="180.003" fill="black"/>
<rect x="3260.17" y="1440.02" width="180.003" height="180.003" fill="black"/>
<rect x="3440.18" y="1620.03" width="180.003" height="180.003" fill="black"/>
<rect x="363.992" width="180.003" height="180.003" fill="black"/>
<rect x="543.996" y="180.003" width="180.003" height="180.003" fill="black"/>
<rect x="363.992" y="1440.02" width="180.003" height="180.003" fill="black"/>
<rect x="543.996" y="1620.03" width="180.003" height="180.003" fill="black"/>
<rect x="2539.98" width="180.003" height="180.003" fill="black"/>
<rect x="2719.98" y="180.003" width="180.003" height="180.003" fill="black"/>
<rect x="2539.98" y="1440.02" width="180.003" height="180.003" fill="black"/>
<rect x="2719.98" y="1620.03" width="180.003" height="180.003" fill="black"/>
<rect x="3984.17" width="180.003" height="180.003" fill="black"/>
<rect x="4164.18" y="180.003" width="180.003" height="180.003" fill="black"/>
<rect x="3984.17" y="1440.02" width="180.003" height="180.003" fill="black"/>
<rect x="4164.18" y="1620.03" width="180.003" height="180.003" fill="black"/>
<rect x="1087.99" width="180.003" height="180.003" fill="black"/>
<rect x="1268" y="180.003" width="180.003" height="180.003" fill="black"/>
<rect x="1087.99" y="1440.02" width="180.003" height="180.003" fill="black"/>
<rect x="1268" y="1620.03" width="180.003" height="180.003" fill="black"/>
<rect x="1451.98" y="720.012" width="180.003" height="180.003" fill="black"/>
<rect x="1631.99" y="900.015" width="180.003" height="180.003" fill="black"/>
<rect x="1451.98" y="2160.04" width="180.003" height="180.003" fill="black"/>
<rect x="1631.99" y="2340.04" width="180.003" height="180.003" fill="black"/>
<rect x="2896.18" y="720.012" width="180.003" height="180.003" fill="black"/>
<rect x="3076.18" y="900.015" width="180.003" height="180.003" fill="black"/>
<rect x="2896.18" y="2160.04" width="180.003" height="180.003" fill="black"/>
<rect x="3076.18" y="2340.04" width="180.003" height="180.003" fill="black"/>
<rect y="720.012" width="180.003" height="180.003" fill="black"/>
<rect x="180.004" y="900.015" width="180.003" height="180.003" fill="black"/>
<rect y="2160.04" width="180.003" height="180.003" fill="black"/>
<rect x="180.004" y="2340.04" width="180.003" height="180.003" fill="black"/>
<rect x="2175.98" y="720.012" width="180.003" height="180.003" fill="black"/>
<rect x="2355.99" y="900.015" width="180.003" height="180.003" fill="black"/>
<rect x="2175.98" y="2160.04" width="180.003" height="180.003" fill="black"/>
<rect x="2355.99" y="2340.04" width="180.003" height="180.003" fill="black"/>
<rect x="3620.18" y="720.012" width="180.003" height="180.003" fill="black"/>
<rect x="3800.18" y="900.015" width="180.003" height="180.003" fill="black"/>
<rect x="3620.18" y="2160.04" width="180.003" height="180.003" fill="black"/>
<rect x="3800.18" y="2340.04" width="180.003" height="180.003" fill="black"/>
<rect x="724" y="720.012" width="180.003" height="180.003" fill="black"/>
<rect x="904.004" y="900.015" width="180.003" height="180.003" fill="black"/>
<rect x="724" y="2160.04" width="180.003" height="180.003" fill="black"/>
<rect x="904.004" y="2340.04" width="180.003" height="180.003" fill="black"/>
<rect x="1815.98" y="720.012" width="180.003" height="180.003" fill="black"/>
<rect x="1995.98" y="900.015" width="180.003" height="180.003" fill="black"/>
<rect x="1815.98" y="2160.04" width="180.003" height="180.003" fill="black"/>
<rect x="1995.98" y="2340.04" width="180.003" height="180.003" fill="black"/>
<rect x="3260.17" y="720.012" width="180.003" height="180.003" fill="black"/>
<rect x="3440.18" y="900.015" width="180.003" height="180.003" fill="black"/>
<rect x="3260.17" y="2160.04" width="180.003" height="180.003" fill="black"/>
<rect x="3440.18" y="2340.04" width="180.003" height="180.003" fill="black"/>
<rect x="363.992" y="720.012" width="180.003" height="180.003" fill="black"/>
<rect x="543.996" y="900.015" width="180.003" height="180.003" fill="black"/>
<rect x="363.992" y="2160.04" width="180.003" height="180.003" fill="black"/>
<rect x="543.996" y="2340.04" width="180.003" height="180.003" fill="black"/>
<rect x="2539.98" y="720.012" width="180.003" height="180.003" fill="black"/>
<rect x="2719.98" y="900.015" width="180.003" height="180.003" fill="black"/>
<rect x="2539.98" y="2160.04" width="180.003" height="180.003" fill="black"/>
<rect x="2719.98" y="2340.04" width="180.003" height="180.003" fill="black"/>
<rect x="3984.17" y="720.012" width="180.003" height="180.003" fill="black"/>
<rect x="4164.18" y="900.015" width="180.003" height="180.003" fill="black"/>
<rect x="3984.17" y="2160.04" width="180.003" height="180.003" fill="black"/>
<rect x="4164.18" y="2340.04" width="180.003" height="180.003" fill="black"/>
<rect x="1087.99" y="720.012" width="180.003" height="180.003" fill="black"/>
<rect x="1268" y="900.015" width="180.003" height="180.003" fill="black"/>
<rect x="1087.99" y="2160.04" width="180.003" height="180.003" fill="black"/>
<rect x="1268" y="2340.04" width="180.003" height="180.003" fill="black"/>
<rect x="1451.98" y="360.006" width="180.003" height="180.003" fill="black"/>
<rect x="1631.99" y="540.009" width="180.003" height="180.003" fill="black"/>
<rect x="1451.98" y="1800.03" width="180.003" height="180.003" fill="black"/>
<rect x="1631.99" y="1980.03" width="180.003" height="180.003" fill="black"/>
<rect x="2896.18" y="360.006" width="180.003" height="180.003" fill="black"/>
<rect x="3076.18" y="540.009" width="180.003" height="180.003" fill="black"/>
<rect x="2896.18" y="1800.03" width="180.003" height="180.003" fill="black"/>
<rect x="3076.18" y="1980.03" width="180.003" height="180.003" fill="black"/>
<rect y="360.006" width="180.003" height="180.003" fill="black"/>
<rect x="180.004" y="540.009" width="180.003" height="180.003" fill="black"/>
<rect y="1800.03" width="180.003" height="180.003" fill="black"/>
<rect x="180.004" y="1980.03" width="180.003" height="180.003" fill="black"/>
<rect x="2175.98" y="360.006" width="180.003" height="180.003" fill="black"/>
<rect x="2355.99" y="540.009" width="180.003" height="180.003" fill="black"/>
<rect x="2175.98" y="1800.03" width="180.003" height="180.003" fill="black"/>
<rect x="2355.99" y="1980.03" width="180.003" height="180.003" fill="black"/>
<rect x="3620.18" y="360.006" width="180.003" height="180.003" fill="black"/>
<rect x="3800.18" y="540.009" width="180.003" height="180.003" fill="black"/>
<rect x="3620.18" y="1800.03" width="180.003" height="180.003" fill="black"/>
<rect x="3800.18" y="1980.03" width="180.003" height="180.003" fill="black"/>
<rect x="724" y="360.006" width="180.003" height="180.003" fill="black"/>
<rect x="904.004" y="540.009" width="180.003" height="180.003" fill="black"/>
<rect x="724" y="1800.03" width="180.003" height="180.003" fill="black"/>
<rect x="904.004" y="1980.03" width="180.003" height="180.003" fill="black"/>
<rect x="1815.98" y="360.006" width="180.003" height="180.003" fill="black"/>
<rect x="1995.98" y="540.009" width="180.003" height="180.003" fill="black"/>
<rect x="1815.98" y="1800.03" width="180.003" height="180.003" fill="black"/>
<rect x="1995.98" y="1980.03" width="180.003" height="180.003" fill="black"/>
<rect x="3260.17" y="360.006" width="180.003" height="180.003" fill="black"/>
<rect x="3440.18" y="540.009" width="180.003" height="180.003" fill="black"/>
<rect x="3260.17" y="1800.03" width="180.003" height="180.003" fill="black"/>
<rect x="3440.18" y="1980.03" width="180.003" height="180.003" fill="black"/>
<rect x="363.992" y="360.006" width="180.003" height="180.003" fill="black"/>
<rect x="543.996" y="540.009" width="180.003" height="180.003" fill="black"/>
<rect x="363.992" y="1800.03" width="180.003" height="180.003" fill="black"/>
<rect x="543.996" y="1980.03" width="180.003" height="180.003" fill="black"/>
<rect x="2539.98" y="360.006" width="180.003" height="180.003" fill="black"/>
<rect x="2719.98" y="540.009" width="180.003" height="180.003" fill="black"/>
<rect x="2539.98" y="1800.03" width="180.003" height="180.003" fill="black"/>
<rect x="2719.98" y="1980.03" width="180.003" height="180.003" fill="black"/>
<rect x="3984.17" y="360.006" width="180.003" height="180.003" fill="black"/>
<rect x="4164.18" y="540.009" width="180.003" height="180.003" fill="black"/>
<rect x="3984.17" y="1800.03" width="180.003" height="180.003" fill="black"/>
<rect x="4164.18" y="1980.03" width="180.003" height="180.003" fill="black"/>
<rect x="1087.99" y="360.006" width="180.003" height="180.003" fill="black"/>
<rect x="1268" y="540.009" width="180.003" height="180.003" fill="black"/>
<rect x="1087.99" y="1800.03" width="180.003" height="180.003" fill="black"/>
<rect x="1268" y="1980.03" width="180.003" height="180.003" fill="black"/>
<rect x="1451.98" y="1080.02" width="180.003" height="180.003" fill="black"/>
<rect x="1631.99" y="1260.02" width="180.003" height="180.003" fill="black"/>
<rect x="1451.98" y="2520.04" width="180.003" height="180.003" fill="black"/>
<rect x="1631.99" y="2700.04" width="180.003" height="180.003" fill="black"/>
<rect x="2896.18" y="1080.02" width="180.003" height="180.003" fill="black"/>
<rect x="3076.18" y="1260.02" width="180.003" height="180.003" fill="black"/>
<rect x="2896.18" y="2520.04" width="180.003" height="180.003" fill="black"/>
<rect x="3076.18" y="2700.04" width="180.003" height="180.003" fill="black"/>
<rect y="1080.02" width="180.003" height="180.003" fill="black"/>
<rect x="180.004" y="1260.02" width="180.003" height="180.003" fill="black"/>
<rect y="2520.04" width="180.003" height="180.003" fill="black"/>
<rect x="180.004" y="2700.04" width="180.003" height="180.003" fill="black"/>
<rect x="2175.98" y="1080.02" width="180.003" height="180.003" fill="black"/>
<rect x="2355.99" y="1260.02" width="180.003" height="180.003" fill="black"/>
<rect x="2175.98" y="2520.04" width="180.003" height="180.003" fill="black"/>
<rect x="2355.99" y="2700.04" width="180.003" height="180.003" fill="black"/>
<rect x="3620.18" y="1080.02" width="180.003" height="180.003" fill="black"/>
<rect x="3800.18" y="1260.02" width="180.003" height="180.003" fill="black"/>
<rect x="3620.18" y="2520.04" width="180.003" height="180.003" fill="black"/>
<rect x="3800.18" y="2700.04" width="180.003" height="180.003" fill="black"/>
<rect x="724" y="1080.02" width="180.003" height="180.003" fill="black"/>
<rect x="904.004" y="1260.02" width="180.003" height="180.003" fill="black"/>
<rect x="724" y="2520.04" width="180.003" height="180.003" fill="black"/>
<rect x="904.004" y="2700.04" width="180.003" height="180.003" fill="black"/>
<rect x="1815.98" y="1080.02" width="180.003" height="180.003" fill="black"/>
<rect x="1995.98" y="1260.02" width="180.003" height="180.003" fill="black"/>
<rect x="1815.98" y="2520.04" width="180.003" height="180.003" fill="black"/>
<rect x="1995.98" y="2700.04" width="180.003" height="180.003" fill="black"/>
<rect x="3260.17" y="1080.02" width="180.003" height="180.003" fill="black"/>
<rect x="3440.18" y="1260.02" width="180.003" height="180.003" fill="black"/>
<rect x="3260.17" y="2520.04" width="180.003" height="180.003" fill="black"/>
<rect x="3440.18" y="2700.04" width="180.003" height="180.003" fill="black"/>
<rect x="363.992" y="1080.02" width="180.003" height="180.003" fill="black"/>
<rect x="543.996" y="1260.02" width="180.003" height="180.003" fill="black"/>
<rect x="363.992" y="2520.04" width="180.003" height="180.003" fill="black"/>
<rect x="543.996" y="2700.04" width="180.003" height="180.003" fill="black"/>
<rect x="2539.98" y="1080.02" width="180.003" height="180.003" fill="black"/>
<rect x="2719.98" y="1260.02" width="180.003" height="180.003" fill="black"/>
<rect x="2539.98" y="2520.04" width="180.003" height="180.003" fill="black"/>
<rect x="2719.98" y="2700.04" width="180.003" height="180.003" fill="black"/>
<rect x="3984.17" y="1080.02" width="180.003" height="180.003" fill="black"/>
<rect x="4164.18" y="1260.02" width="180.003" height="180.003" fill="black"/>
<rect x="3984.17" y="2520.04" width="180.003" height="180.003" fill="black"/>
<rect x="4164.18" y="2700.04" width="180.003" height="180.003" fill="black"/>
<rect x="1087.99" y="1080.02" width="180.003" height="180.003" fill="black"/>
<rect x="1268" y="1260.02" width="180.003" height="180.003" fill="black"/>
<rect x="1087.99" y="2520.04" width="180.003" height="180.003" fill="black"/>
<rect x="1268" y="2700.04" width="180.003" height="180.003" fill="black"/>
</svg>
