<svg width="1448" height="595" viewBox="0 0 1448 595" fill="none" xmlns="http://www.w3.org/2000/svg">
<path d="M1089.21 220.204V242.591H1111.61V264.887H1089.21V242.683H1066.91V220.204H1089.21ZM1107.57 201.854H1048.55V260.942H1070.85V283.237H1129.96V224.333H1107.57V201.854Z" fill="#262425"/>
<path d="M1066.82 242.683H1089.21V220.295H1066.82V242.683Z" fill="#9B907B"/>
<path d="M1089.21 264.979H1111.61V242.591H1089.21V264.979Z" fill="#9B907B"/>
<path d="M309.224 27.5255V170.108H285.727V263.969H262.322V334.435H215.328V287.458H191.831V217.084H144.929V287.458H121.432V334.435H74.5294V263.969H51.0325V170.108H27.5355V27.5255H74.5294V121.387H97.9346V191.761H121.432V144.876H144.929V97.899H191.831V144.876H215.328V191.761H238.641V121.387H262.138V27.5255H309.04M336.576 0H234.786V93.8619H219.366V70.3735H117.393V93.8619H102.065V0H0V197.633H23.497V291.495H46.9939V361.96H148.967V314.983H187.792V361.96H289.857V291.495H313.262V197.633H336.759V0H336.576Z" fill="#262425"/>
<path d="M512.895 86.1544V110.102H536.392V322.69H489.398V299.202H465.901V322.69H372.005V299.202H348.784V203.505H372.281V181.851H348.784V110.102H372.281V86.1544H512.895ZM395.502 180.016H418.999V158.363H395.502V180.016ZM418.999 250.482H465.901V228.828H418.999V250.482ZM540.431 58.6289H344.47V82.5761H321.248V326.727H344.745V350.216H563.928V82.5761H540.431V58.6289Z" fill="#262425"/>
<path d="M716.474 97.8985V121.387H739.971V193.595H693.069V170.107H646.075V193.595H622.578V334.434H575.676V97.8985H622.578V121.387H646.075V97.8985H716.474ZM744.01 70.373H548.141V361.96H650.114V221.121H767.507V93.8615H744.01V70.373Z" fill="#262425"/>
<path d="M963.742 97.8985V334.434H916.564V310.946H893.159V334.434H799.263V310.946H775.766V97.8985H822.668V262.226H869.662V238.554H893.159V215.249H916.564V97.8985H963.742ZM991.277 70.373H889.029V187.723H865.623V211.028H850.204V70.373H748.23V338.471H771.727V361.96H991.277V70.373Z" fill="#262425"/>
<path d="M1146.67 97.8985V121.387H1170.17V144.875H1193.66V334.434H1146.67V193.595H1123.26V170.107H1076.27V193.595H1052.77V334.434H1005.87V97.8985H1052.77V121.387H1076.27V97.8985H1146.67ZM1174.21 70.373H978.336V361.96H1080.31V221.121H1119.13V361.96H1221.2V117.35H1197.7V93.8615H1174.21V70.373Z" fill="#262425"/>
<path d="M1420.46 114.781V398.11H1397.06V422.058H1373.56V445.546H1279.67V422.058H1256.17V398.11H1232.67V325.994H1279.67V304.248H1256.17V280.852H1232.67V161.575H1256.17V138.178H1279.67V114.781H1350.07V138.178H1373.56V114.781H1420.46ZM1279.67 232.132H1303.35V255.528H1350.25V232.132H1373.75V210.387H1350.25V186.99H1303.35V210.387H1279.85V232.132M1279.85 349.39H1303.35V372.879H1350.25V349.39H1373.75V327.737H1279.67V349.39M1448 87.2559H1252.13V110.653H1228.63V134.141H1205.14V425.636H1228.63V449.583H1252.13V473.071H1401.1V449.583H1424.59V425.636H1448V87.2559Z" fill="#262425"/>
<path d="M215.327 336.82V289.843H191.83V219.47H144.928V289.843H121.431V336.82H74.5291V266.08H51.0321V172.585H27.5352V55.0508H74.5291V149.096H97.9342V219.47H121.431V172.585H144.928V125.608H191.83V172.585H215.327V219.47H238.641V149.096H262.138V55.0508H309.04V172.585H285.726V266.08H262.321V336.453H215.327V336.82Z" fill="#9889A5"/>
<path d="M489.398 325.076V301.587H465.901V325.076H372.005V301.587H348.783V231.214H372.28V207.725H419.274V184.237H489.673V160.84H395.502V184.237H348.783V137.627H372.28V113.863H512.895V137.627H536.392V325.076H489.398ZM465.901 278.099V254.702H489.398V231.214H418.999V254.702H395.502V278.099H465.901Z" fill="#9889A5"/>
<path d="M575.676 336.821V125.792H622.578V149.28H646.075V125.608H716.474V149.097H739.971V195.982H693.069V172.585H646.075V195.982H622.578V336.821H575.676Z" fill="#9889A5"/>
<path d="M916.566 336.821V313.332H893.161V336.821H799.265V313.332H775.768V125.608H822.67V289.844H869.664V266.08H893.161V242.959H916.566V125.608H963.743V336.637H916.566V336.821Z" fill="#9889A5"/>
<path d="M1146.67 336.821V195.982H1123.26V172.585H1076.27V195.982H1052.77V336.821H1005.87V125.792H1052.77V149.28H1076.27V125.608H1146.67V149.097H1170.17V172.585H1193.66V336.821H1146.67Z" fill="#9889A5"/>
<path d="M1326.57 447.473H1279.67V424.076H1256.17V400.587H1232.67V353.611H1279.67V377.099H1303.35V400.587H1350.25V377.099H1373.75V330.306H1279.67V306.726H1256.17V283.237H1232.67V189.375H1256.17V165.887H1279.67V142.398H1350.06V165.887H1373.56V142.398H1420.46V400.587H1397.06V424.076H1373.56V447.473H1326.57ZM1350.06 283.237V259.749H1373.56V212.864H1350.06V189.375H1303.35V212.864H1279.85V259.749H1303.35V283.237H1350.25H1350.06Z" fill="#9889A5"/>
<path d="M215.327 311.956V264.612H191.83V194.238H144.928V264.612H121.431V311.956H74.5291V241.123H51.0321V147.261H27.5352V29.9111H74.5291V123.773H97.9342V194.238H121.431V147.261H144.928V100.376H191.83V147.261H215.327V194.238H238.641V123.773H262.138V29.9111H309.04V147.261H285.726V241.123H262.321V311.956H215.327Z" fill="white"/>
<path d="M489.398 299.844V276.356H465.901V299.844H372.005V276.356H348.783V205.982H372.28V182.494H419.274V159.005H489.673V135.517H395.502V159.005H348.783V112.12H372.28V88.6318H512.895V112.12H536.392V299.844H489.398ZM465.901 252.867V229.379H489.398V205.982H418.999V229.379H395.502V252.867H465.901Z" fill="white"/>
<path d="M575.676 311.955V100.926H622.578V124.323H646.075V100.376H716.474V123.773H739.971V170.749H693.069V147.261H646.075V170.749H622.578V311.955H575.676Z" fill="white"/>
<path d="M916.566 311.955V288.1H893.161V311.955H799.265V288.1H775.768V100.376H822.67V264.611H869.664V241.123H893.161V217.635H916.566V100.376H963.743V311.955H916.566Z" fill="white"/>
<path d="M1146.67 311.955V170.749H1123.26V147.261H1076.27V170.749H1052.77V311.955H1005.87V100.926H1052.77V124.323H1076.27V100.376H1146.67V123.773H1170.17V147.261H1193.66V311.955H1146.67Z" fill="white"/>
<path d="M1326.57 422.058H1279.67V398.753H1256.17V375.264H1232.67V328.379H1279.67V351.868H1303.35V375.264H1350.25V351.868H1373.75V304.891H1279.67V281.402H1256.17V258.006H1232.67V164.144H1256.17V140.655H1279.67V117.167H1350.06V140.655H1373.56V117.167H1420.46V375.264H1397.06V398.753H1373.56V422.058H1326.57ZM1350.06 257.822V234.517H1373.56V187.54H1350.06V164.144H1303.35V187.54H1279.85V234.517H1303.35V258.006H1350.25L1350.06 257.822Z" fill="white"/>
<path d="M810.553 242.041V263.786H788.8V242.041H810.553ZM828.91 223.69H770.443V282.136H828.91V223.69Z" fill="#262425"/>
<path d="M853.599 220.204V241.949H810.552V220.204H853.599ZM871.956 201.854H792.195V260.299H871.956V201.854Z" fill="#262425"/>
<path d="M788.708 263.786V285.531H766.955V263.786H788.708ZM807.065 245.436H748.598V303.881H807.065V245.436Z" fill="#262425"/>
<path d="M766.956 285.531V307.276H745.203V285.531H766.956ZM785.313 267.181H726.846V325.626H785.313V267.181Z" fill="#262425"/>
<path d="M810.646 242.041H788.893V263.786H810.646V242.041Z" fill="#9B907B"/>
<path d="M854.151 220.296H832.398V242.041H854.151V220.296Z" fill="#9B907B"/>
<path d="M832.398 220.296H810.645V242.041H832.398V220.296Z" fill="#9B907B"/>
<path d="M788.8 263.786H767.047V285.531H788.8V263.786Z" fill="#9B907B"/>
<path d="M767.14 285.531H745.387V307.276H767.14V285.531Z" fill="#9B907B"/>
<path d="M1245.98 270.483L1248.28 293.605L1272.23 291.311L1291.23 488.852L1267.28 491.146L1269.39 513.9L976.133 541.334L639.007 573.998L636.804 551.243L631.114 551.794L612.757 553.537L593.849 355.996L617.805 353.702L615.694 330.948L910.415 302.78L1245.98 270.575M1262.5 250.573L1244.15 252.317L908.671 284.43L613.858 312.689L595.501 314.432L597.337 332.783V337.279L591.646 337.829L573.289 339.572L575.033 357.923L594.032 555.464L595.776 573.814L614.133 572.071L619.824 571.52V576.016L621.568 594.367L639.925 592.623L977.877 559.684L1271.04 532.159L1289.4 530.416L1287.56 512.065V507.57L1293.25 507.019L1311.61 505.276L1309.86 486.925L1290.86 289.384L1289.12 271.034L1270.76 272.869L1265.07 273.419V268.924L1263.33 250.573H1262.5Z" fill="#262425"/>
<path d="M1253.88 292.688L1229.92 294.982L1227.72 272.228L615.694 330.949L617.805 353.703L593.85 355.997L612.849 553.538L636.805 551.244L639.008 573.999L1251.03 515.278L1248.83 492.523L1272.87 490.229L1253.88 292.688Z" fill="#606161"/>
<path d="M1272.14 290.944L1248.18 293.238L1245.98 270.483L633.958 329.204L636.161 351.959L612.113 354.253L631.113 551.794L655.069 549.5L657.271 572.254L1269.29 513.533L1267.18 490.779L1291.14 488.485L1272.14 290.944Z" fill="#CE4127"/>
<path d="M667.919 552.896L666.175 534.545L643.504 536.748L627.166 367.007L649.837 364.805L648.093 346.455L1235.52 290.119L1237.35 308.469L1259.93 306.359L1275.81 475.824L1253.14 478.026L1254.88 496.377L667.919 552.896ZM674.435 524.361L676.179 542.711L1245.25 487.66L1243.5 469.31L1266.17 467.108L1251.58 315.718L1228.91 317.92L1227.16 299.57L658.098 354.621L659.841 372.971L637.171 375.173L651.673 526.563L674.435 524.361Z" fill="white"/>
<path d="M829.92 493.532L829.002 483.531L818.997 484.54L817.988 474.54L807.708 475.549L806.79 465.548L796.785 466.465L795.776 456.464L765.854 459.309L769.617 499.312L749.7 501.239L738.41 381.32L808.442 374.53L809.36 384.531L819.365 383.614L820.374 393.615L830.287 392.605L834.142 432.609L824.137 433.618L825.147 443.619L815.142 444.537L816.06 454.538L826.065 453.62L827.074 463.621L837.079 462.612L837.997 472.613L848.001 471.695L849.929 491.697L839.924 492.615L829.92 493.532ZM804.22 435.545L803.21 425.544L813.215 424.535L811.287 404.533L801.283 405.542L800.365 395.541L760.347 399.395L763.192 429.398L773.197 428.388L774.206 438.389L794.215 436.463L804.22 435.545Z" fill="white"/>
<path d="M919.961 484.908L890.314 487.844L889.305 477.843L879.3 478.76L878.382 468.759L868.378 469.769L859.199 369.759L879.208 367.833L887.836 457.841L897.841 456.832L898.85 466.833L928.864 463.988L927.028 453.987L937.033 452.978L928.405 363.062L948.414 361.135L957.593 461.052L947.588 462.062L948.506 472.062L938.501 472.98L939.511 482.981L929.506 483.99L919.961 484.908Z" fill="white"/>
<path d="M1029.92 474.356L999.906 477.2L998.988 467.199L988.984 468.209L987.974 458.208L977.97 459.217L976.042 439.215L996.051 437.288L997.061 447.289L1007.07 446.28L1007.98 456.281L1038 453.436L1037.08 443.436L1047.08 442.426L1046.35 432.425L1036.34 433.435L1035.43 423.434L1005.41 426.278L1004.4 416.277L984.395 418.204L983.477 408.203L972.921 409.212L970.076 379.209L980.081 378.2L979.071 368.199L989.076 367.282L988.158 357.281L1038.09 352.418L1039.1 362.419L1049.1 361.501L1051.03 381.503L1031.02 383.43L1030.01 373.429L990.085 377.283L991.921 397.285L1001.93 396.275L1002.94 406.276L1032.95 403.432L1033.87 413.433L1053.88 411.506L1054.89 421.507L1064.89 420.498L1067.74 450.5L1057.73 451.51L1058.74 461.511L1048.74 462.428L1049.65 472.429L1039.65 473.438L1029.92 474.356Z" fill="white"/>
<path d="M1159.98 461.877L1155.12 411.873L1105.09 416.644L1109.96 466.648L1089.95 468.575L1078.38 348.656L1098.39 346.729L1103.16 396.642L1153.19 391.871L1148.41 341.866L1168.42 339.939L1179.9 459.951L1169.98 460.868L1159.98 461.877Z" fill="white"/>
</svg>
