<svg width="512" height="512" viewBox="0 0 512 512" fill="none" xmlns="http://www.w3.org/2000/svg">
<path d="M23.9336 49.5402L49.3022 24.4316H462.925L487.854 49.5402V464.471L462.925 489.4H49.3022L23.9336 464.471V49.5402Z" fill="#64BBE6"/>
<g clip-path="url(#clip0_110_264)">
<path d="M207.238 85.335H182.857V109.716H207.238V85.335Z" fill="#1E1914"/>
<path d="M304.762 60.9541H203.389V85.3351H304.762V60.9541Z" fill="#1E1914"/>
<path d="M231.619 85.335H207.238V109.716H231.619V85.335Z" fill="#EAD79B"/>
<path d="M256 85.335H231.619V109.716H256V85.335Z" fill="#EAD79B"/>
<path d="M280.381 85.335H256V109.716H280.381V85.335Z" fill="#EAD79B"/>
<path d="M304.762 85.335H280.381V109.716H304.762V85.335Z" fill="#EAD79B"/>
<path d="M329.143 85.335H304.762V109.716H329.143V85.335Z" fill="#1E1914"/>
<path d="M182.858 109.716H158.477V134.097H182.858V109.716Z" fill="#1E1914"/>
<path d="M207.238 109.716H182.857V134.097H207.238V109.716Z" fill="#EAD79B"/>
<path d="M231.619 109.716H207.238V134.097H231.619V109.716Z" fill="#AC9758"/>
<path d="M256 109.716H231.619V134.097H256V109.716Z" fill="#1E1914"/>
<path d="M280.381 109.716H256V134.097H280.381V109.716Z" fill="#1E1914"/>
<path d="M304.762 109.716H280.381V134.097H304.762V109.716Z" fill="#AC9758"/>
<path d="M329.143 109.716H304.762V134.097H329.143V109.716Z" fill="#EAD79B"/>
<path d="M353.525 109.716H329.145V134.097H353.525V109.716Z" fill="#1E1914"/>
<path d="M182.858 134.097H158.477V158.478H182.858V134.097Z" fill="#1E1914"/>
<path d="M207.238 134.097H182.857V158.478H207.238V134.097Z" fill="#EAD79B"/>
<path d="M231.619 134.097H207.238V158.478H231.619V134.097Z" fill="#1E1914"/>
<path d="M304.762 134.097H280.381V158.478H304.762V134.097Z" fill="#1E1914"/>
<path d="M329.143 134.097H304.762V158.478H329.143V134.097Z" fill="#EAD79B"/>
<path d="M353.525 134.097H329.145V158.478H353.525V134.097Z" fill="#1E1914"/>
<path d="M182.858 158.478H158.477V182.858H182.858V158.478Z" fill="#1E1914"/>
<path d="M207.238 158.478H182.857V182.858H207.238V158.478Z" fill="#AC9758"/>
<path d="M231.619 158.478H207.238V182.858H231.619V158.478Z" fill="#1E1914"/>
<path d="M304.762 158.478H280.381V182.858H304.762V158.478Z" fill="#1E1914"/>
<path d="M329.143 158.478H304.762V182.858H329.143V158.478Z" fill="#AC9758"/>
<path d="M353.525 158.478H329.145V182.858H353.525V158.478Z" fill="#1E1914"/>
<path d="M158.477 182.858H134.096V207.239H158.477V182.858Z" fill="#1E1914"/>
<path d="M182.858 182.858H158.477V207.239H182.858V182.858Z" fill="#1E1914"/>
<path d="M207.238 182.858H182.857V207.239H207.238V182.858Z" fill="#1E1914"/>
<path d="M231.619 182.858H207.238V207.239H231.619V182.858Z" fill="#1E1914"/>
<path d="M256 182.858H231.619V207.239H256V182.858Z" fill="#1E1914"/>
<path d="M280.381 182.858H256V207.239H280.381V182.858Z" fill="#1E1914"/>
<path d="M304.762 182.858H280.381V207.239H304.762V182.858Z" fill="#1E1914"/>
<path d="M329.143 182.858H304.762V207.239H329.143V182.858Z" fill="#1E1914"/>
<path d="M353.525 182.858H329.145V207.239H353.525V182.858Z" fill="#1E1914"/>
<path d="M377.906 182.858H353.525V207.239H377.906V182.858Z" fill="#1E1914"/>
<path d="M134.096 207.24H109.715V231.621H134.096V207.24Z" fill="#1E1914"/>
<path d="M158.477 207.24H134.096V231.621H158.477V207.24Z" fill="#B82027"/>
<path d="M182.858 207.24H158.477V231.621H182.858V207.24Z" fill="#B82027"/>
<path d="M207.238 207.24H182.857V231.621H207.238V207.24Z" fill="#B82027"/>
<path d="M231.619 207.24H207.238V231.621H231.619V207.24Z" fill="#B82027"/>
<path d="M256 207.24H231.619V231.621H256V207.24Z" fill="#B82027"/>
<path d="M280.381 207.24H256V231.621H280.381V207.24Z" fill="#B82027"/>
<path d="M304.762 207.24H280.381V231.621H304.762V207.24Z" fill="#B82027"/>
<path d="M329.143 207.24H304.762V231.621H329.143V207.24Z" fill="#B82027"/>
<path d="M353.525 207.24H329.145V231.621H353.525V207.24Z" fill="#B82027"/>
<path d="M377.906 207.24H353.525V231.621H377.906V207.24Z" fill="#B82027"/>
<path d="M402.287 207.24H377.906V231.621H402.287V207.24Z" fill="#1E1914"/>
<path d="M109.715 231.621H85.334V256.002H109.715V231.621Z" fill="#1E1914"/>
<path d="M134.096 231.621H109.715V256.002H134.096V231.621Z" fill="#B82027"/>
<path d="M158.477 231.621H134.096V256.002H158.477V231.621Z" fill="#B82027"/>
<path d="M182.858 231.621H158.477V256.002H182.858V231.621Z" fill="#B82027"/>
<path d="M207.238 231.621H182.857V256.002H207.238V231.621Z" fill="#B82027"/>
<path d="M231.619 231.621H207.238V256.002H231.619V231.621Z" fill="#B82027"/>
<path d="M256 231.621H231.619V256.002H256V231.621Z" fill="#B82027"/>
<path d="M280.381 231.621H256V256.002H280.381V231.621Z" fill="#B82027"/>
<path d="M304.762 231.621H280.381V256.002H304.762V231.621Z" fill="#B82027"/>
<path d="M329.143 231.621H304.762V256.002H329.143V231.621Z" fill="#B82027"/>
<path d="M353.525 231.621H329.145V256.002H353.525V231.621Z" fill="#B82027"/>
<path d="M377.906 231.621H353.525V256.002H377.906V231.621Z" fill="#B82027"/>
<path d="M402.287 231.621H377.906V256.002H402.287V231.621Z" fill="#B82027"/>
<path d="M426.668 231.621H402.287V256.002H426.668V231.621Z" fill="#1E1914"/>
<path d="M109.715 256.002H85.334V280.383H109.715V256.002Z" fill="#1E1914"/>
<path d="M134.096 256.002H109.715V280.383H134.096V256.002Z" fill="#B82027"/>
<path d="M158.477 256.002H134.096V280.383H158.477V256.002Z" fill="#B82027"/>
<path d="M182.858 256.002H158.477V280.383H182.858V256.002Z" fill="#B82027"/>
<path d="M207.238 256.002H182.857V280.383H207.238V256.002Z" fill="#B82027"/>
<path d="M231.619 256.002H207.238V280.383H231.619V256.002Z" fill="#B82027"/>
<path d="M256 256.002H231.619V280.383H256V256.002Z" fill="#B82027"/>
<path d="M280.381 256.002H256V280.383H280.381V256.002Z" fill="#B82027"/>
<path d="M304.762 256.002H280.381V280.383H304.762V256.002Z" fill="#B82027"/>
<path d="M329.143 256.002H304.762V280.383H329.143V256.002Z" fill="#B82027"/>
<path d="M353.525 256.002H329.145V280.383H353.525V256.002Z" fill="#B82027"/>
<path d="M377.906 256.002H353.525V280.383H377.906V256.002Z" fill="#B82027"/>
<path d="M402.287 256.002H377.906V280.383H402.287V256.002Z" fill="#B82027"/>
<path d="M426.668 256.002H402.287V280.383H426.668V256.002Z" fill="#1E1914"/>
<path d="M109.715 280.383H85.334V304.764H109.715V280.383Z" fill="#1E1914"/>
<path d="M134.096 280.383H109.715V304.764H134.096V280.383Z" fill="#B82027"/>
<path d="M158.477 280.383H134.096V304.764H158.477V280.383Z" fill="#B82027"/>
<path d="M182.858 280.383H158.477V304.764H182.858V280.383Z" fill="#B82027"/>
<path d="M207.238 280.383H182.857V304.764H207.238V280.383Z" fill="#B82027"/>
<path d="M231.619 280.383H207.238V304.764H231.619V280.383Z" fill="#B82027"/>
<path d="M256 280.383H231.619V304.764H256V280.383Z" fill="#B82027"/>
<path d="M280.381 280.383H256V304.764H280.381V280.383Z" fill="#B82027"/>
<path d="M304.762 280.383H280.381V304.764H304.762V280.383Z" fill="#B82027"/>
<path d="M329.143 280.383H304.762V304.764H329.143V280.383Z" fill="#B82027"/>
<path d="M353.525 280.383H329.145V304.764H353.525V280.383Z" fill="#B82027"/>
<path d="M377.906 280.383H353.525V304.764H377.906V280.383Z" fill="#B82027"/>
<path d="M402.287 280.383H377.906V304.764H402.287V280.383Z" fill="#B82027"/>
<path d="M426.668 280.383H402.287V304.764H426.668V280.383Z" fill="#1E1914"/>
<path d="M109.715 304.764H85.334V329.145H109.715V304.764Z" fill="#1E1914"/>
<path d="M134.096 304.764H109.715V329.145H134.096V304.764Z" fill="#B82027"/>
<path d="M158.477 304.764H134.096V329.145H158.477V304.764Z" fill="#B82027"/>
<path d="M182.858 304.764H158.477V329.145H182.858V304.764Z" fill="#B82027"/>
<path d="M207.238 304.764H182.857V329.145H207.238V304.764Z" fill="#B82027"/>
<path d="M231.619 304.764H207.238V329.145H231.619V304.764Z" fill="#B82027"/>
<path d="M256 304.764H231.619V329.145H256V304.764Z" fill="#B82027"/>
<path d="M280.381 304.764H256V329.145H280.381V304.764Z" fill="#B82027"/>
<path d="M304.762 304.764H280.381V329.145H304.762V304.764Z" fill="#B82027"/>
<path d="M329.143 304.764H304.762V329.145H329.143V304.764Z" fill="#B82027"/>
<path d="M353.525 304.764H329.145V329.145H353.525V304.764Z" fill="#B82027"/>
<path d="M377.906 304.764H353.525V329.145H377.906V304.764Z" fill="#B82027"/>
<path d="M402.287 304.764H377.906V329.145H402.287V304.764Z" fill="#B82027"/>
<path d="M426.668 304.764H402.287V329.145H426.668V304.764Z" fill="#1E1914"/>
<path d="M109.715 329.145H85.334V353.525H109.715V329.145Z" fill="#1E1914"/>
<path d="M134.096 329.145H109.715V353.525H134.096V329.145Z" fill="#B82027"/>
<path d="M158.477 329.145H134.096V353.525H158.477V329.145Z" fill="#B82027"/>
<path d="M182.858 329.145H158.477V353.525H182.858V329.145Z" fill="#B82027"/>
<path d="M207.238 329.145H182.857V353.525H207.238V329.145Z" fill="#B82027"/>
<path d="M231.619 329.145H207.238V353.525H231.619V329.145Z" fill="#B82027"/>
<path d="M256 329.145H231.619V353.525H256V329.145Z" fill="#B82027"/>
<path d="M280.381 329.145H256V353.525H280.381V329.145Z" fill="#B82027"/>
<path d="M304.762 329.145H280.381V353.525H304.762V329.145Z" fill="#B82027"/>
<path d="M329.143 329.145H304.762V353.525H329.143V329.145Z" fill="#B82027"/>
<path d="M353.525 329.145H329.145V353.525H353.525V329.145Z" fill="#B82027"/>
<path d="M377.906 329.145H353.525V353.525H377.906V329.145Z" fill="#B82027"/>
<path d="M402.287 329.145H377.906V353.525H402.287V329.145Z" fill="#B82027"/>
<path d="M426.668 329.145H402.287V353.525H426.668V329.145Z" fill="#1E1914"/>
<path d="M85.3341 353.525H60.9531V377.906H85.3341V353.525Z" fill="#1E1914"/>
<path d="M109.715 353.525H85.334V377.906H109.715V353.525Z" fill="#901E41"/>
<path d="M134.096 353.525H109.715V377.906H134.096V353.525Z" fill="#B82027"/>
<path d="M158.477 353.525H134.096V377.906H158.477V353.525Z" fill="#B82027"/>
<path d="M182.858 353.525H158.477V377.906H182.858V353.525Z" fill="#B82027"/>
<path d="M207.238 353.525H182.857V377.906H207.238V353.525Z" fill="#B82027"/>
<path d="M231.619 353.525H207.238V377.906H231.619V353.525Z" fill="#B82027"/>
<path d="M256 353.525H231.619V377.906H256V353.525Z" fill="#B82027"/>
<path d="M280.381 353.525H256V377.906H280.381V353.525Z" fill="#B82027"/>
<path d="M304.762 353.525H280.381V377.906H304.762V353.525Z" fill="#B82027"/>
<path d="M329.143 353.525H304.762V377.906H329.143V353.525Z" fill="#B82027"/>
<path d="M353.525 353.525H329.145V377.906H353.525V353.525Z" fill="#B82027"/>
<path d="M377.906 353.525H353.525V377.906H377.906V353.525Z" fill="#B82027"/>
<path d="M402.287 353.525H377.906V377.906H402.287V353.525Z" fill="#B82027"/>
<path d="M426.668 353.525H402.287V377.906H426.668V353.525Z" fill="#901E41"/>
<path d="M451.049 353.525H426.668V377.906H451.049V353.525Z" fill="#1E1914"/>
<path d="M85.3341 377.906H60.9531V402.287H85.3341V377.906Z" fill="#1E1914"/>
<path d="M109.715 377.906H85.334V402.287H109.715V377.906Z" fill="#901E41"/>
<path d="M134.096 377.906H109.715V402.287H134.096V377.906Z" fill="#B82027"/>
<path d="M158.477 377.906H134.096V402.287H158.477V377.906Z" fill="#B82027"/>
<path d="M182.858 377.906H158.477V402.287H182.858V377.906Z" fill="#B82027"/>
<path d="M207.238 377.906H182.857V402.287H207.238V377.906Z" fill="#B82027"/>
<path d="M231.619 377.906H207.238V402.287H231.619V377.906Z" fill="#B82027"/>
<path d="M256 377.906H231.619V402.287H256V377.906Z" fill="#B82027"/>
<path d="M280.381 377.906H256V402.287H280.381V377.906Z" fill="#B82027"/>
<path d="M304.762 377.906H280.381V402.287H304.762V377.906Z" fill="#B82027"/>
<path d="M329.143 377.906H304.762V402.287H329.143V377.906Z" fill="#B82027"/>
<path d="M353.525 377.906H329.145V402.287H353.525V377.906Z" fill="#B82027"/>
<path d="M377.906 377.906H353.525V402.287H377.906V377.906Z" fill="#B82027"/>
<path d="M402.287 377.906H377.906V402.287H402.287V377.906Z" fill="#B82027"/>
<path d="M426.668 377.906H402.287V402.287H426.668V377.906Z" fill="#901E41"/>
<path d="M451.049 377.906H426.668V402.287H451.049V377.906Z" fill="#1E1914"/>
<path d="M85.3341 402.287H60.9531V426.668H85.3341V402.287Z" fill="#1E1914"/>
<path d="M109.715 402.287H85.334V426.668H109.715V402.287Z" fill="#901E41"/>
<path d="M134.096 402.287H109.715V426.668H134.096V402.287Z" fill="#901E41"/>
<path d="M158.477 402.287H134.096V426.668H158.477V402.287Z" fill="#901E41"/>
<path d="M182.858 402.287H158.477V426.668H182.858V402.287Z" fill="#901E41"/>
<path d="M207.238 402.287H182.857V426.668H207.238V402.287Z" fill="#901E41"/>
<path d="M231.619 402.287H207.238V426.668H231.619V402.287Z" fill="#901E41"/>
<path d="M256 402.287H231.619V426.668H256V402.287Z" fill="#901E41"/>
<path d="M280.381 402.287H256V426.668H280.381V402.287Z" fill="#901E41"/>
<path d="M304.762 402.287H280.381V426.668H304.762V402.287Z" fill="#901E41"/>
<path d="M329.143 402.287H304.762V426.668H329.143V402.287Z" fill="#901E41"/>
<path d="M353.525 402.287H329.145V426.668H353.525V402.287Z" fill="#901E41"/>
<path d="M377.906 402.287H353.525V426.668H377.906V402.287Z" fill="#901E41"/>
<path d="M402.287 402.287H377.906V426.668H402.287V402.287Z" fill="#901E41"/>
<path d="M426.668 402.287H402.287V426.668H426.668V402.287Z" fill="#901E41"/>
<path d="M451.049 402.287H426.668V426.668H451.049V402.287Z" fill="#1E1914"/>
<path d="M109.715 426.668H85.334V451.049H109.715V426.668Z" fill="#1E1914"/>
<path d="M134.096 426.668H109.715V451.049H134.096V426.668Z" fill="#1E1914"/>
<path d="M158.477 426.668H134.096V451.049H158.477V426.668Z" fill="#1E1914"/>
<path d="M182.858 426.668H158.477V451.049H182.858V426.668Z" fill="#1E1914"/>
<path d="M207.238 426.668H182.857V451.049H207.238V426.668Z" fill="#1E1914"/>
<path d="M231.619 426.668H207.238V451.049H231.619V426.668Z" fill="#1E1914"/>
<path d="M256 426.668H231.619V451.049H256V426.668Z" fill="#1E1914"/>
<path d="M280.381 426.668H256V451.049H280.381V426.668Z" fill="#1E1914"/>
<path d="M304.762 426.668H280.381V451.049H304.762V426.668Z" fill="#1E1914"/>
<path d="M329.143 426.668H304.762V451.049H329.143V426.668Z" fill="#1E1914"/>
<path d="M353.525 426.668H329.145V451.049H353.525V426.668Z" fill="#1E1914"/>
<path d="M377.906 426.668H353.525V451.049H377.906V426.668Z" fill="#1E1914"/>
<path d="M402.287 426.668H377.906V451.049H402.287V426.668Z" fill="#1E1914"/>
<path d="M426.668 426.668H402.287V451.049H426.668V426.668Z" fill="#1E1914"/>
</g>
<path d="M48.7618 24.3809H24.3809V48.7618H48.7618V24.3809Z" fill="#1E1914"/>
<path d="M24.381 48.7617H0V463.24H24.381V48.7617Z" fill="#1E1914"/>
<path d="M463.238 0H48.7617V24.381H463.238V0Z" fill="#1E1914"/>
<path d="M463.238 512.002H48.7617V487.621H463.238V512.002Z" fill="#1E1914"/>
<path d="M487.619 24.3809H463.238V48.7618H487.619V24.3809Z" fill="#1E1914"/>
<path d="M487.619 487.621H463.238V463.24H487.619V487.621Z" fill="#1E1914"/>
<path d="M48.7618 487.621H24.3809V463.24H48.7618V487.621Z" fill="#1E1914"/>
<path d="M512 48.7617H487.619V463.24H512V48.7617Z" fill="#1E1914"/>
<defs>
<clipPath id="clip0_110_264">
<rect width="390.095" height="390.095" fill="white" transform="translate(60.9531 60.9541)"/>
</clipPath>
</defs>
</svg>
